<svg xmlns="http://www.w3.org/2000/svg" style="display: none;">

    <symbol id="main-logo" viewBox="0 0 2149.6291 657.0766">
      	<title>main-logo</title>
        <g transform="translate(1040.5 161.89)">
          <g transform="translate(-1081.9 -1173.8)">
           <g clip-rule="evenodd" fill-rule="evenodd">
            <path d="m1665.6 1061c2.547 93.652 1.043 187.22-5.736 281.11h-19.369c0-9.455-0.508-18.91 0.08-28.297 5.039-80.381 7.523-160.8 4.91-241.34-0.475-14.641-0.066-39.311-0.066-54.195 9.221 0 18.486-0.193 27.729 0.189 1.531 0.064 9.953 10.648 11.434 12.063 20.414 19.484 34.383 40.43 51.635 62.963 13.699 17.893 23.545 37.723 30.201 59.193 0.369 1.188 0.842 2.342 1.635 4.531v-139.67h19.334c1.332 105.68 2.662 220.2 3.992 325.81-7.732 0-15.344 0.182-22.926-0.215-1.027-0.053-2.648-2.959-2.73-4.609-0.613-12.311-0.543-24.662-1.367-36.957-2.496-37.221-5.404-74.41-13.023-111.04-8.572-41.207-29.127-75.631-58.922-104.98-8.506-8.377-16.264-17.512-24.365-26.299-0.817 0.581-1.631 1.163-2.446 1.745z"/>
            <path d="m1462.5 1203.4c0.165 22.57 0.45 42.867-4.375 62.721-7.849 32.322-25.56 57.234-53.269 74.543-13.404 8.373-26.598 5.873-39.736-0.689-22.832-11.404-36.23-31.043-45.012-54.721-6.611-17.822-9.693-36.469-10.406-55.348-1.271-33.639-1.096-67.291 4.527-100.63 5.098-30.227 12.318-59.836 28.404-86.082 5.242-8.553 12.783-15.643 19.531-23.154 1.271-1.416 3.71-2.102 5.71-2.387 27.049-3.871 44.995 10.199 58.85 32.051 13.182 20.785 21.164 43.818 26.988 67.705 7.07 28.977 9.642 58.471 8.788 85.994zm-133.39-4.195c-0.084 22.168 2.615 43.877 9.934 64.742 4.84 13.805 11.514 26.922 21.333 37.865 7.186 8.006 16.514 21.443 29.083 17.818 14.188-4.096 26.001-24.443 33.367-36.285 9.502-15.275 15.582-32.416 18.072-50.217 1.383-9.883 2.17-20.199 1.994-30.182-0.359-20.438-2.863-40.693-7.459-60.627-5.48-23.775-12.842-46.816-25.154-67.896-6.928-11.861-15.109-22.523-26.725-30.039-3.23-2.09-5.234-2.041-8.059 0.844-15.748 16.078-24.162 36.332-30.906 57.436-10.011 31.334-14.482 63.68-15.48 96.541z"/>
            <path d="m2052 1347.6h-19.844c0-2.041-0.037-3.947 0-5.852 0.857-39.656 1.797-79.313 2.533-118.97 0.189-10.16-0.311-20.33-0.381-30.496-0.02-2.824-0.797-4.148-3.982-4.195-20.996-0.305-41.99-0.797-62.984-1.213-0.807-0.016-1.617 0.123-3.035 0.238-5.148 52.467-6.664 104.98-6.463 158.2h-9.777-9.762c-0.381-5.686-1.191-10.945-1.014-16.172 1.65-48.125 2.311-96.322 5.545-144.34 3.672-54.484 15.17-107.67 32.518-159.54 1.395-4.164 3.311-5.328 7.887-5.963 16.521-2.285 24.832 8.412 33.063 19.432 17.127 22.936 25.461 49.518 31.178 77.068 8.324 40.119 7.885 80.822 7.344 121.48-0.467 34.996-1.584 69.982-2.43 104.97-0.042 1.633-0.239 3.266-0.4 5.352zm-19.332-179.53c-5.32-41.354-13.553-80.659-40.043-115.02-11.861 37.694-20.426 74.795-25.52 113.28 22.04 0.588 43.436 1.158 65.563 1.748z"/>
            <path d="m1822.3 1017.8c6.141 0 11.709-0.584 17.07 0.223 3.119 0.471 6.195 2.811 8.791 4.924 20.947 17.068 35.84 38.645 46.619 63.238 20.656 47.127 24.973 96.34 15.414 146.28-7.686 40.148-26.953 75.223-55.041 105.21-3.133 3.346-6.76 4.217-11.289 4.424-7.049 0.322-14.045 1.797-21.564 2.855v-327.16zm20.228 292.61c1.189-1.563 1.699-2.162 2.131-2.814 8.23-12.467 17.422-24.416 24.492-37.512 21.004-38.904 31.133-79.65 19.322-123.98-7.613-28.576-18.182-55.576-36.346-79.191-2.641-3.432-5.582-6.633-8.383-9.941-0.404 0.211-0.811 0.42-1.217 0.631 0.001 83.731 0.001 167.47 0.001 252.81z"/>
            <path d="m1590 1017.7h19.182c0.73 7.32 1.605 38.701 2.182 46.105 3.307 42.426 4.381 84.93 1.902 127.4-2.242 38.424-6.32 76.689-18.521 113.55-3.328 10.061-8.141 19.262-15.525 27.033-7.822 8.23-17.178 11.955-28.629 12.467-9.037 0.402-15.207-2.705-21.275-9.053-18.699-19.563-28.936-43.168-34.854-69.08-5.396-23.631-7.281-47.695-9.133-71.777-2.742-35.627-2.359-71.281-0.869-106.93 0.473-11.303 1.84-55.57 3.016-66.83 0.125-1.199 1.66-3.154 2.631-3.209 5.441-0.313 10.912-0.15 17.402-0.15-2.166 48.201-6.936 97.66-3.258 145.83 2.695 35.316 3.361 72.893 15.949 106.43 5.531 14.74 13.56 30.982 24.021 42.896 21.133 24.064 39.1-58.191 41.197-68.697 6.027-30.209 8.695-61.006 9.088-91.789 0.385-30.07-0.623-60.502-2.445-90.518-0.391-6.433-2.061-36.908-2.061-43.675z"/>
            <path d="m1022.6 1180.4c20.936-1.072 41.459-2.123 62.314-3.189v20.02c-20.162 1.41-40.194 2.813-60.953 4.264 0.807 5.217 1.502 10.27 2.381 15.291 4.393 25.104 11.42 49.285 25.527 70.873 10.916 16.701 25.348 28.799 44.801 34.746 7.846 2.4 15.027 1.195 21.746-2.18 9.625-4.838 19.494-6.061 30.688-4.49 0 5.623 0.139 11.373-0.123 17.105-0.049 1.059-1.516 2.412-2.654 3.006-8.772 4.582-17.928 8.16-27.967 8.33-16.262 0.271-32.619 1.781-48.268-4.869-21.613-9.186-35.461-25.865-45.568-46.26-10.457-21.111-16.016-43.648-19.217-66.857-3.895-28.213-4.086-56.537-0.914-84.75 2.814-25.039 10.297-48.813 23.859-70.334 22.313-35.404 54.574-52.973 96.302-53.385 5.165-0.051 10.329 0.051 15.493 0.109 0.291 0 0.58 0.256 1.139 0.52v18.479c-5.178 0.617-10.26 1.166-15.326 1.834-32.543 4.291-57.549 20.842-75.666 47.728-18.574 27.567-26.018 58.745-27.801 91.528-0.035 0.647 0.103 1.304 0.207 2.481z"/>
            <path d="m1176.5 1018h18.996c2.055 49.75 4.9 104.29 5.923 153.87 1.024 49.598 0.225 99.232 0.225 149.99h113.06v19.658c-0.771 0.139-1.547 0.402-2.32 0.398-40.928-0.25-81.857-0.471-122.78-0.84-7.584-0.068-8.289-1.035-8.25-8.318 0.27-48.988 1.365-97.992 0.578-146.96-0.641-39.793-3.709-79.543-5.334-119.32-0.582-14.281-0.094-33.605-0.094-48.472z"/>
           </g>
           <g clip-rule="evenodd" fill-rule="evenodd">
            <path d="m1474.7 1556.8h-12.56c0-1.291-0.024-2.497 0-3.704 0.542-25.101 1.139-50.2 1.606-75.301 0.116-6.429-0.199-12.867-0.244-19.303-0.013-1.787-0.502-2.625-2.52-2.653-13.289-0.194-26.576-0.505-39.865-0.769-0.512-0.01-1.024 0.079-1.922 0.15-3.259 33.209-4.216 66.442-4.09 100.13h-6.188-6.179c-0.24-3.599-0.754-6.928-0.643-10.235 1.045-30.46 1.463-60.965 3.511-91.358 2.323-34.486 9.601-68.15 20.581-100.98 0.884-2.637 2.095-3.374 4.993-3.776 10.457-1.445 15.717 5.324 20.928 12.3 10.838 14.516 16.114 31.342 19.731 48.778 5.271 25.394 4.992 51.156 4.649 76.887-0.296 22.15-1.004 44.294-1.537 66.44-0.029 1.034-0.152 2.068-0.253 3.388zm-12.237-113.63c-3.367-26.173-8.576-51.053-25.342-72.803-7.509 23.856-12.93 47.34-16.153 71.696 13.947 0.372 27.489 0.733 41.495 1.107z"/>
            <path d="m1509.3 1663.9h-13.428v-215.01c16.643-2.959 29.482 2.047 39.264 15.301 6.363 8.625 11.229 17.838 11.49 28.709 0.213 8.791 0.582 17.777-0.898 26.371-3.199 18.568-15.914 30.213-31.598 38.896-3.789 2.098-4.957 4.387-4.891 8.559 0.491 30.488 0.061 95.068 0.061 97.174zm0.532-125.78c8.131-5.736 14.402-12.578 18.305-21.193 2.02-4.459 4.309-9.645 3.836-14.229-1.525-14.76-9.771-25.943-22.141-35.771v71.193z"/>
            <path d="m1622.9 1448.1c5.232 0.096 9.506 0.178 14.115 0.262 1.041 44.141 2.5 65.197 3.545 109.56-5.395-0.1-9.783-0.182-15.334-0.285 0.191-10.242 0.139-7.406 0.328-17.605-0.482-0.068-0.967-0.139-1.447-0.207-1.262 1.902-2.492 3.824-3.787 5.703-5.201 7.563-12.16 11.682-21.58 10.971-1.26-0.098-2.531-0.055-3.797-0.078-19.559-0.363-29.525-8.504-32.875-27.959-3.781-21.963-3.713-38.496 0.123-60.393 2.748-25.395 51.807-24.535 60.252 4.59 0.221-11.899 0.243-13.071 0.457-24.56zm-48.158 67.756c1.689 8.242 5.047 15.914 11.734 21.564 4.861 4.105 14.338 4.338 18.951 0.066 3.875-3.588 6.852-11.424 8.861-16.244 2.299-5.502 3.746-11.322 4.012-17.293 0.467-10.426-2.383-21.611-8.357-30.244-8.74-12.627-29.275-9.555-34.367 4.502-4.004 11.054-3.156 26.323-0.834 37.649z"/>
            <path d="m1878.6 1508.3c-1.48-0.145-2.785-0.271-4.76-0.465 0-3.613-0.055-7.223 0.045-10.826 0.02-0.721 0.479-1.908 0.988-2.064 4.699-1.455 3.621-5.281 3.648-8.605 0.08-10.258 1.156-20.313 6.34-29.441 6.318-11.123 15.396-17.682 28.75-17.041 3.324 0.16 6.668-0.063 9.996 0.08 8.178 0.348 12.799 5.551 13.732 13.588 1.963 16.889-3.459 30.16-18.063 39.166-5.646 3.484-11.65 6.398-17.551 9.457-2.346 1.215-4.855 2.111-7.824 3.381 4.125 15.854 10.209 30.162 24.602 39.576 6.877 4.498 13.146 3.178 19.547-0.836 9.85-6.176 15.328-15.441 18.889-26.141 3.578-10.756 3.605-10.746 15.926-9.098 1.402 14.73-3.346 27.701-12.043 39.273-7.006 9.322-16.652 13.932-28.484 13.986-27.572 0.127-40.865-9.504-49.227-36.201-1.785-5.698-2.957-11.586-4.511-17.789zm13.603-20.707c12.176-5.686 22.281-12.033 28.818-22.857 1.488-2.461 2.734-4.92-0.1-7.492-2.66-2.418-5.096-3.762-8.814-1.742-12.384 6.733-17.459 17.86-19.904 32.091z"/>
            <path d="m1999.4 1557c-4.604 0.334-13.945-0.141-13.945-0.141s-0.25-15.727-0.184-21.098c0.354-29.104-0.92-58.369-1.842-87.459-0.01-0.32-0.205-7.84-0.322-7.84h14.494v28.898c6.396-7.582 10.654-16.607 18.637-22.863 7.104-5.566 17.627-9.316 26.498-6.027 4.104 1.521 9.43 5.537 11.49 9.506 5.275 10.172 6.498 21.355 7.004 32.473 1.344 29.492-0.102 44.924-3.018 74.621h-14.307c0.686-12.006 1.277-18.756 2.045-30.494 0.842-12.869 2.459-25.852 1.051-38.74-0.877-8.023-2.545-23.77-10.303-28.428-6.234-3.74-15.021 4.578-18.984 8.676-9.826 10.162-16.566 25.982-17.861 39.98-0.367 3.973 0.585 48.86-0.453 48.936z"/>
           </g>
           <path d="m1858.4 1480.2c-0.467-10.256-1.594-20.572-6.461-29.955-9.154-17.648-32.494-8.27-41.094 4.156-1.074 1.553-2.482 4.475-4.156 7.271-1.676-2.797-3.082-5.719-4.158-7.271-8.6-12.426-31.938-21.805-41.092-4.156-4.869 9.383-5.994 19.699-6.461 29.955-1.242 27.205 0.092 49.742 2.781 77.137h13.197c-0.631-11.076-1.176-17.301-1.885-28.129-1.016-15.525-2.537-31.398-0.514-46.898 0.994-7.619 3.637-23.043 13.688-23.311 13.943-0.371 16.768 21.209 18.283 30.803 1.492 9.465 2.766 28.381 2.766 28.381l7.713 0.01s1.736-30.287 3.25-38.064c1.959-10.063 14.277-30.863 24.965-16.26 3.734 5.105 4.797 12.32 5.596 18.438 2.023 15.5 0.504 31.377-0.512 46.902-0.709 10.828-1.254 17.053-1.887 28.129h13.199c2.691-27.396 4.023-49.933 2.782-77.138z"/>
           <g clip-rule="evenodd" fill-rule="evenodd">
            <path d="m2177.8 1463.8c-7.891 0.715-13.271-0.4-13.301-0.406-0.176-0.037-1.111-3.842-1.227-4.105-1.33-3.076-3.553-5.684-6.541-7.246-6.594-3.449-15.969-0.994-17.895 7.523-2.143 9.479 7.332 13.479 14.504 17.063 4.484 2.24 9.174 4.119 13.582 6.512 19.998 10.852 27.205 28.426 22.84 50.77-1.775 9.094-7.324 16.203-15.779 20.035-16.471 7.463-41.109 3.322-51.188-12.674-5.26-8.348-5.592-18.514-5.813-28.078 3.748-0.615 8.191-0.6 11.971 0.072-0.32-0.057 1.328 10.457 1.621 11.35 1.197 3.633 3.023 6.963 5.813 9.623 5.014 4.783 15.678 8.801 22.589 6.922 6.264-1.703 13.508-8.516 15.573-14.625 2.359-6.977-1.584-13.07-6.465-17.869-6.246-6.139-14.488-10.311-22.031-15.049-5.193-3.264-10.939-5.662-16.055-9.033-4.518-2.979-6.852-7.604-6.832-13.201 0.014-3.666-0.027-7.334 0-11.002 0.068-11.539 6.777-19.133 18.4-20.156 5.621-0.496 11.34-0.334 16.986-0.016 7.246 0.408 13.593 3.939 17.332 9.65 2.281 3.481 1.369 9.05 1.92 13.94z"/>
            <path d="m2080.1 1424.1h-16.906v-14.092h18.977v-25.361h13.141v25.283h21.152v14.172h-21.166c-3.414 44.664 4.488 88.439 4.561 132.73h-13.809c-1.972-43.957-3.942-87.926-5.95-132.73z"/>
            <path d="m1736.8 1556.9h-13.84c-1.971-44.115-3.934-88.08-5.922-132.56h-16.838v-14.08h18.615v-25.475h13.527v25.258h21.098v14.035h-21.197c-3.468 44.519 4.418 88.28 4.557 132.82z"/>
            <path d="m1680.5 1557.3h-12.404c-2.404-37.701-4.801-75.23-7.209-112.97 1.949-0.15 3.24-0.309 4.539-0.338 2.127-0.049 4.258-0.014 6.607-0.014 0.514 8.033 1 15.648 1.563 24.438 8.783-8.885 16.871-16.486 31.436-14.449 1.75 7.346 1.707 7.73-5.41 11.189-13.771 6.689-18.605 17.279-20.098 29.248-0.594 4.75-0.352 9.568-0.502 14.354-0.499 16.003 1.997 32.005 1.478 48.541z"/>
           </g>
           <g clip-rule="evenodd" fill-rule="evenodd">
            <path d="m1242.3 1447c5.234 0.096 9.506 0.178 14.115 0.262 1.041 44.141 2.502 65.197 3.545 109.56-5.395-0.1-9.783-0.182-15.334-0.285 0.191-10.242 0.139-7.406 0.328-17.605-0.482-0.068-0.965-0.139-1.447-0.207-1.26 1.902-2.492 3.824-3.785 5.703-5.203 7.563-12.162 11.682-21.582 10.971-1.26-0.098-2.529-0.055-3.795-0.078-19.561-0.363-29.527-8.504-32.877-27.959-3.781-21.963-3.711-38.496 0.123-60.393 2.75-25.395 51.807-24.535 60.252 4.59 0.221-11.9 0.242-13.072 0.457-24.56zm-48.158 67.756c1.689 8.242 5.047 15.914 11.734 21.564 4.861 4.105 14.338 4.338 18.951 0.066 3.875-3.588 6.852-11.424 8.861-16.244 2.299-5.502 3.748-11.322 4.014-17.293 0.465-10.426-2.385-21.611-8.359-30.244-8.74-12.627-29.273-9.555-34.367 4.502-4.004 11.053-3.156 26.323-0.834 37.649z"/>
            <path d="m1038.2 1502.8c-1.48-0.145-2.785-0.271-4.76-0.465 0-3.615-0.053-7.223 0.047-10.828 0.02-0.721 0.478-1.906 0.988-2.064 4.699-1.453 3.621-5.279 3.646-8.604 0.08-10.26 1.156-20.314 6.342-29.441 6.316-11.125 15.395-17.684 28.748-17.043 3.326 0.16 6.67-0.061 9.996 0.082 8.178 0.348 12.799 5.549 13.732 13.586 1.965 16.891-3.459 30.162-18.061 39.168-5.648 3.482-11.65 6.398-17.553 9.455-2.344 1.217-4.854 2.111-7.822 3.381 4.123 15.855 10.207 30.162 24.602 39.578 6.877 4.498 13.146 3.176 19.547-0.838 9.85-6.176 15.326-15.439 18.887-26.139 3.58-10.756 3.605-10.748 15.928-9.1 1.4 14.73-3.346 27.701-12.043 39.273-7.007 9.322-16.654 13.934-28.484 13.988-27.572 0.125-40.867-9.504-49.229-36.201-1.784-5.698-2.954-11.587-4.511-17.788zm13.606-20.709c12.174-5.684 22.281-12.033 28.818-22.855 1.486-2.461 2.732-4.92-0.1-7.494-2.66-2.416-5.098-3.762-8.814-1.74-12.385 6.732-17.459 17.86-19.904 32.089z"/>
            <path d="m1311.4 1514c-8.414 13.713-15.947 29.783-23.684 42.369-4.223 0.338-8.813 0.73-17.947 0 0.23-5.414-0.342-7.385 2.916-12.576 9.189-14.643 18.037-29.498 27.234-44.135 1.66-2.641 1.723-4.549 0.232-7.193-7.672-13.604-14.901-27.467-22.863-40.895-3.389-5.713-1.971-11.17-1.602-16.83 8.908-2.053 12.398-0.588 16.637 6.949 6.836 12.154 13.654 24.32 20.846 37.141 3.256-4.697 6.207-9.029 9.238-13.307 3.652-5.156 7.615-10.113 10.984-15.447 2.643-4.188 5.828-5.889 10.67-4.701 1.717 0.422 3.564 0.318 5.615 0.475 0.123 6.791 0.021 12.676-4.271 18.24-7.203 9.34-13.563 19.328-20.451 28.916-1.867 2.6-2.18 4.656-0.631 7.623 6.461 12.379 12.656 24.898 18.914 37.383 3.434 6.854 3.654 9.83 1.549 18.152-10.471 1.375-11.818 0.711-16.309-8.197-5.522-10.955-11.022-21.922-17.077-33.967z"/>
           </g>
           <path d="m1022.3 1496.8c-0.588-0.706-0.938-1.079-1.212-1.461-4.934-6.923-12.23-13.317-22.384-19.086-9.677-5.499-17.965-10.704-27.98-15.635 26.986-9.146 45.56-19.687 53.331-31.616 10.488-16.104 5.752-31.972-16.914-47.167-11.827-7.931-28.169-14.887-51.154-20.391-2.848-0.681-6.224-1.435-9.646-1.587-5.884-0.261-11.993-0.072-18.731-0.072v66.415c1.055 12.996 2.109 25.97 3.163 38.934 0.433 5.331 0.865 10.661 1.298 15.99 0.723 22.075-1.074 44.127-4.25 66.168-0.436 3.026-0.06 6.075-0.06 9.124h10.425 3.931c5.024-30.271 6.14-60.442 4.251-90.639 0.604-0.188 1.208-0.375 1.812-0.563 4.282 2.021 8.437 4.098 12.754 6.102 1.736 0.808 3.495 1.603 5.304 2.379 22.083 9.463 37.317 20.561 43.671 33.848 5.646 11.81 7.802 23.802 9.652 35.803 0.61 3.964 0.559 7.946 1.013 11.916 0.061 0.532 1.263 1.469 2.024 1.486 5.619 0.128 11.261 0.069 16.991 0.069-0.987-34.051-6.76-47.786-17.289-60.017zm-68.73-44.202c-0.743-0.32-1.33-0.53-1.609-0.535-0.391-0.01-0.782-0.01-1.173-0.014-0.327-0.01-0.655-0.01-0.981-0.013v-79.417c0.445-0.067 0.891-0.135 1.334-0.203 3.074 1.067 6.301 2.1 9.199 3.205 19.931 7.615 31.527 16.32 39.881 25.534 11.678 12.881 3.803 24.823-14.733 36.237-2.034 1.252-4.19 2.498-6.468 3.738-7.354 4.003-16.795 7.673-25.45 11.468z"/>
           <path fill-rule="evenodd" clip-rule="evenodd" d="m1161.8 1556.8h-13.23c-4.682-20.41-7.904-142.8-4.537-172.12h13.498c-4.357 57.478 0.451 114.55 4.269 172.12z"/>
          </g>
          <g fill-rule="evenodd" clip-rule="evenodd" transform="translate(-2181.9 -466.19)">
           <path d="m1466.4 633.89c-15.119 25.438-28.818 48.971-43.229 72.064-1.574 2.522-7.45 3.939-10.973 3.42-28.786-4.245-57.4-9.775-86.243-13.563-48.915-6.423-97.495-5.064-145.13 9.527-3.218 0.985-6.649 1.276-13.252 2.493 3.354-14.399 4.323-27.797 9.545-39.26 15.623-34.3 31.836-68.431 49.911-101.48 12.679-23.188 19.678-25.988 44.099-17.287 45.966 16.374 91.271 34.646 136.57 52.818 16.024 6.428 31.372 14.612 46.767 22.506 5.069 2.601 9.317 6.797 11.933 8.761z"/>
           <path d="m1411.3 727.15c-4.378 31.215-8.148 59.969-12.798 88.585-0.509 3.124-5.698 6.938-9.372 7.876-30.025 7.679-60.409 14.025-90.299 22.179-53.506 14.595-87.668 26.683-138.64 69.102-2.755 2.295-6.004 3.994-11.99 7.905-2.63-15.524-7.197-29.086-6.784-42.494 1.229-40.125 3.104-80.323 7.255-120.23 2.91-27.997 8.632-33.628 36.202-35.135 51.893-2.837 103.92-3.537 155.9-4.336 18.388-0.283 36.833 1.439 55.206 2.855 6.047 0.468 11.947 2.84 15.326 3.691z"/>
           <path d="m1232 522.1c4.837-8.21 8.46-15.255 12.9-21.741 26.25-38.355 64.063-62.67 103.93-84.189 3.441-1.861 10.086-0.242 14.139 1.872 36.585 19.102 68.14 45.029 97.205 73.987 17.167 17.104 33.368 35.186 49.884 52.938 3.021 3.249 5.479 7.021 8.149 10.485-0.94 1.42-1.331 2.472-2.08 3.074-18.073 14.425-36.362 28.579-54.167 43.324-5.003 4.146-8.86 5.163-14.682 1.932-64.055-35.555-132.62-59.382-203.27-77.763-3.294-0.858-6.488-2.104-12.006-3.919z"/>
           <path d="m1343.9 382.15c15.8-7.047 28.599-13.98 42.196-18.556 26.249-8.833 52.935-16.362 79.459-24.383 7.26-2.193 12.806-0.616 18.198 5.585 37.214 42.777 66.51 90.291 86.945 143.19 9.218 23.863 8.685 24.203-15.196 30.113-10.348 2.561-20.504 6.237-30.359 10.33-5.349 2.218-8.656 2.141-12.381-2.606-43.344-55.282-97.497-98.06-156.7-134.96-3.193-1.989-6.137-4.375-12.165-8.714z"/>
           <path d="m1646.8 304.42c6.031 0.158 10.962-0.66 15.331 0.548 34.578 9.55 67.466 23.075 97.709 42.637 7.53 4.871 10.625 11.723 9.461 20.404-7.287 54.447-20.37 106.86-54.944 152.87-8.373-5.392-16.547-13.263-26.247-16.371-22.17-7.106-26.227-21.962-26.362-43.1-0.238-37.364-3.06-74.758-5.999-112.04-1.133-14.336-5.549-28.409-8.949-44.94z"/>
           <path d="m1490 314.49c31.631-7.041 60.583-5.146 89.41-0.822 14.003 2.101 27.723 6.081 41.608 9.026 7.372 1.563 10.609 6.008 12.503 13.249 10.437 39.946 13.1 80.594 12.177 121.64-0.244 11.083-0.474 22.184-0.198 33.267 0.187 7.563-2.427 10.911-10.35 9.811-14.398-2.007-28.893-3.404-43.248-5.67-2.614-0.413-6.336-3.388-6.896-5.797-13.084-56.09-44.796-102.41-77.181-148.41-5.706-8.108-11.131-16.407-17.825-26.297z"/>
           <path d="m1794.1 346.73c24.244 19.3 48.323 35.179 64.906 59.449 6.828 9.99 14.012 19.761 21.469 29.293 7.017 8.97 6.729 16.938 0.033 26.277-20.499 28.595-47.744 49.91-75.043 71.228-9.544 7.457-19.452 14.45-28.931 21.991-4.752 3.778-8.308 4.063-11.962-1.26-7.252-10.557-14.947-20.816-21.928-31.545-1.549-2.383-2.331-7.084-1.025-9.235 28.704-47.294 37.049-101 48.914-153.6 0.812-3.6 2.002-7.112 3.567-12.598z"/>
           <path d="m1914.7 450.88c25.061 32.877 37.639 68.862 38.949 108.75 0.11 3.351-2.62 8.243-5.508 10.029-43.69 27.028-89.561 48.377-141.68 53.158-7.094 0.649-10.152-1.27-10.845-8.429-1.307-13.439-3.765-26.793-4.522-40.248-0.248-4.293 2.081-10.643 5.393-12.935 42.45-29.372 80.743-63.072 111.98-104.42 1.409-1.862 3.421-3.269 6.232-5.906z"/>
           <path d="m1973.2 580.14c4.931 22.407 5.314 43.325 1.307 64.203-3.065 15.978-6.721 31.874-10.996 47.566-0.909 3.331-5.437 7.722-8.647 8.035-17.141 1.675-34.512 3.923-51.585 2.777-33.217-2.224-65.563-9.944-98.33-20.251 4.183-14.078 7.911-27.614 12.45-40.87 0.694-2.028 5-3.263 7.86-4.03 18.73-5.027 37.559-9.725 56.296-14.726 29.015-7.744 56.262-19.476 81.189-36.372 2.842-1.926 5.874-3.572 10.456-6.332z"/>
           <path d="m1973.3 721.58c-5.482 12.876-9.327 25.466-15.888 36.438-9.026 15.102-20.591 28.662-30.126 43.49-6.373 9.911-14.836 12.794-24.816 8.945-20.598-7.942-41.572-15.493-60.893-25.968-19.332-10.483-37.294-23.726-54.981-36.931-11.138-8.315-10.702-11.493-2.032-21.985 6.573-7.958 12.146-19.499 20.571-22.362 7.853-2.667 19.006 3.633 28.493 6.648 38.957 12.383 79.03 12.329 119.23 11.163 4.146-0.121 8.293-0.274 12.44-0.282 1.697-0.002 3.393 0.34 8.004 0.844z"/>
           <path d="m1918.4 834.75c-8.683 15.852-20.118 28.164-33.475 38.713-9.768 7.719-19.734 15.233-30.056 22.182-14.285 9.62-21.346 9.745-34.545-1.584-13.352-11.463-27.015-23.189-37.692-37.003-16.446-21.278-30.431-44.459-45.539-66.777-3.893-5.749-2.004-9.27 3.582-12.383 8.465-4.716 16.974-9.453 24.91-14.979 6.647-4.628 11.206-3.651 17.087 1.685 31.75 28.805 68.556 49.115 109.01 62.897 8.418 2.868 17.192 4.697 26.717 7.249z"/>
           <path d="m1825.3 922.92c-12.995 5.46-22.957 11.742-33.712 13.739-24.449 4.537-49.255 7.249-73.999 9.913-3.301 0.357-8.979-3.034-10.348-6.114-7.243-16.321-14.932-32.687-19.69-49.811-7.568-27.211-14.667-54.728-8.875-83.699 1.693-8.466 4.289-10.635 13.093-11.233 21.21-1.438 33.792 4.589 42.617 26.311 11.822 29.101 36.193 50.175 58.813 71.629 9.48 8.988 19.298 17.618 32.101 29.265z"/>
           <path d="m1690.6 961.38c-9.434-2.236-17.894-3.521-25.854-6.268-19.605-6.763-39.045-14.024-58.425-21.427-11.036-4.217-16.374-12.051-17.064-24.523-2.36-42.841 12.556-80.844 31.731-117.68 1.293-2.484 8.137-4.665 10.709-3.442 10.242 4.877 19.952 10.944 29.498 17.122 1.711 1.107 2.791 5.039 2.361 7.324-9.705 51.807 2.832 99.464 26.571 145.1 0.149 0.288 0.098 0.68 0.473 3.792z"/>
           <path d="m1589.9 751.27c7.704 16.815 15.494 31.641 5.724 52.277-15.896 33.569-24.104 69.884-25.072 107.43-0.096 3.793-0.575 7.587-1.124 11.346-0.184 1.258-1.136 2.404-2.598 5.328-5.994-4.27-12.627-7.234-16.766-12.255-15.792-19.179-31.036-38.825-45.952-58.695-7.109-9.466-5.626-18.976 1.561-28.545 21.167-28.2 45.521-53.005 74.773-72.844 1.709-1.16 3.558-2.146 5.414-3.059 0.874-0.425 1.927-0.491 4.04-0.985z"/>
           <path d="m1577.2 704.17c-1.039 19.718-3.807 34.905-20.828 47.152-29.363 21.134-51.691 49.873-72.906 79.1-2.405 3.313-3.933 7.272-7.362 10.29-11.706-22.634-19.8-44.841-17.753-69.241 2.962-35.318-4.09-30.197 32.191-43.727 22.632-8.444 46.139-14.572 69.367-21.364 5.153-1.507 10.777-1.424 17.291-2.21z"/>
           <path d="m1544.7 545.26c25.806-6.633 48.204-24.284 76.851-21.887 7.575 0.636 13.354 3.485 16.811 10.271 4.075 7.998 9.153 15.767 11.575 24.269 5.188 18.185 8.94 36.776 13.393 55.679-3.485 0.417-5.334 0.191-6.74 0.876-18.618 9.058-29.171-1.921-42.071-13.69-16.733-15.263-36.78-26.888-55.337-40.164-5.314-3.801-10.41-7.902-15.612-11.861 0.375-1.167 0.752-2.328 1.13-3.493z"/>
           <path d="m1620.6 627.16c-6.017 4.742-11.27 9.994-17.517 13.429-4.521 2.48-10.999 4.677-15.523 3.343-32.018-9.463-64.181-17.422-97.895-16.885-1.594 0.024-3.202-1.049-5.874-1.988 1.627-3.771 2.301-7.88 4.671-10.402 12.708-13.554 25.262-27.357 39.045-39.761 7.861-7.074 18.922-9.057 28.025-2.139 21.152 16.073 41.58 33.093 62.227 49.823 1.225 0.992 1.778 2.814 2.841 4.58z"/>
           <path d="m1447.9 723.86c2.117-6.1 3.575-12.53 6.478-18.228 9.117-17.895 18.543-35.648 28.464-53.109 1.67-2.941 6.244-5.59 9.72-5.938 29.881-3.002 58.612 2.198 86.443 13.19 6.115 2.414 7.528 5.367 4.754 11.813-4.933 11.464-12.414 16.034-25.129 19.218-32.441 8.125-64.016 19.749-95.909 30.047-4.205 1.359-8.28 3.137-12.415 4.721-0.804-0.573-1.604-1.145-2.406-1.714z"/>
           <path d="m1636.9 692.35c12.742-0.802 20.89 2.479 28.488 11.676 19.324 23.381 45.233 35.76 75.279 39.493 3.352 0.417 6.706 0.81 12.446 1.497-4.211 3.546-6.47 6.032-9.232 7.682-24.627 14.697-51.202 22.072-80.012 21.251-10.413-0.298-17.302-5.074-19.366-15.157-3.524-17.222-6.637-34.539-9.275-51.912-0.686-4.516 1.014-9.392 1.672-14.53z"/>
           <path d="m1652.9 517.94c8.508 1.996 16.27 2.406 22.634 5.592 14.184 7.1 27.781 15.407 41.415 23.563 9.597 5.745 13.346 14.443 8.362 24.764-7.928 16.419-16.486 32.558-25.479 48.417-2.001 3.528-9.354 8.219-10.089 7.584-4.868-4.217-10.745-9.176-12.264-14.951-3.313-12.606-3.075-26.15-6.395-38.759-4.729-17.96-11.347-35.42-18.184-56.21z"/>
           <path d="m1789.7 651.88c-1.527 9.3-1.063 17.42-4.251 23.677-7.522 14.751-16.179 29.04-25.706 42.578-2.972 4.228-10.402 8.006-15.456 7.617-23.076-1.771-44.655-9.205-63.975-22.167-9.623-6.455-9.883-10.345-0.251-17.038 5.919-4.11 13.778-8.551 20.369-8.014 29.79 2.436 56.113-5.837 80.565-21.984 1.967-1.295 4.161-2.248 8.705-4.669z"/>
           <path d="m1750.2 563.52c16.734 19.596 26.728 40.285 26.981 65.079 0.08 7.687-2.554 13.268-10.331 16.029-18.216 6.468-36.23 13.526-54.577 19.583-3.952 1.306-12.699 0.008-12.884-1.115-1.145-7.123-3.622-17.762 0.058-21.312 21.776-21.008 36.238-46.222 47.585-73.701 0.492-1.196 1.496-2.186 3.168-4.563z"/>
           <path d="m1614.6 650.26c3.046 8.301 6.9 16.711 9.124 25.535 1.815 7.196 2.273 14.889 2.293 22.363 0.058 21.319-0.414 42.642-0.665 62.83-43.502-25.702-37.662-92.455-10.752-110.73z"/>
          </g>
        </g>
    </symbol>

    <symbol id="small-logo" viewBox="0 0 835.88742 657.0766">
        <title>small-logo</title>
        <g transform="translate(226.52 -120.97)">
  <g fill-rule="evenodd" clip-rule="evenodd" transform="translate(-1367.9 -183.33)">
   <path d="m1466.4 633.89c-15.119 25.438-28.818 48.971-43.229 72.064-1.574 2.522-7.45 3.939-10.973 3.42-28.786-4.245-57.4-9.775-86.243-13.563-48.915-6.423-97.495-5.064-145.13 9.527-3.218 0.985-6.649 1.276-13.252 2.493 3.354-14.399 4.323-27.797 9.545-39.26 15.623-34.3 31.836-68.431 49.911-101.48 12.679-23.188 19.678-25.988 44.099-17.287 45.966 16.374 91.271 34.646 136.57 52.818 16.024 6.428 31.372 14.612 46.767 22.506 5.069 2.601 9.317 6.797 11.933 8.761z"/>
   <path d="m1411.3 727.15c-4.378 31.215-8.148 59.969-12.798 88.585-0.509 3.124-5.698 6.938-9.372 7.876-30.025 7.679-60.409 14.025-90.299 22.179-53.506 14.595-87.668 26.683-138.64 69.102-2.755 2.295-6.004 3.994-11.99 7.905-2.63-15.524-7.197-29.086-6.784-42.494 1.229-40.125 3.104-80.323 7.255-120.23 2.91-27.997 8.632-33.628 36.202-35.135 51.893-2.837 103.92-3.537 155.9-4.336 18.388-0.283 36.833 1.439 55.206 2.855 6.047 0.468 11.947 2.84 15.326 3.691z"/>
   <path d="m1232 522.1c4.837-8.21 8.46-15.255 12.9-21.741 26.25-38.355 64.063-62.67 103.93-84.189 3.441-1.861 10.086-0.242 14.139 1.872 36.585 19.102 68.14 45.029 97.205 73.987 17.167 17.104 33.368 35.186 49.884 52.938 3.021 3.249 5.479 7.021 8.149 10.485-0.94 1.42-1.331 2.472-2.08 3.074-18.073 14.425-36.362 28.579-54.167 43.324-5.003 4.146-8.86 5.163-14.682 1.932-64.055-35.555-132.62-59.382-203.27-77.763-3.294-0.858-6.488-2.104-12.006-3.919z"/>
   <path d="m1343.9 382.15c15.8-7.047 28.599-13.98 42.196-18.556 26.249-8.833 52.935-16.362 79.459-24.383 7.26-2.193 12.806-0.616 18.198 5.585 37.214 42.777 66.51 90.291 86.945 143.19 9.218 23.863 8.685 24.203-15.196 30.113-10.348 2.561-20.504 6.237-30.359 10.33-5.349 2.218-8.656 2.141-12.381-2.606-43.344-55.282-97.497-98.06-156.7-134.96-3.193-1.989-6.137-4.375-12.165-8.714z"/>
   <path d="m1646.8 304.42c6.031 0.158 10.962-0.66 15.331 0.548 34.578 9.55 67.466 23.075 97.709 42.637 7.53 4.871 10.625 11.723 9.461 20.404-7.287 54.447-20.37 106.86-54.944 152.87-8.373-5.392-16.547-13.263-26.247-16.371-22.17-7.106-26.227-21.962-26.362-43.1-0.238-37.364-3.06-74.758-5.999-112.04-1.133-14.336-5.549-28.409-8.949-44.94z"/>
   <path d="m1490 314.49c31.631-7.041 60.583-5.146 89.41-0.822 14.003 2.101 27.723 6.081 41.608 9.026 7.372 1.563 10.609 6.008 12.503 13.249 10.437 39.946 13.1 80.594 12.177 121.64-0.244 11.083-0.474 22.184-0.198 33.267 0.187 7.563-2.427 10.911-10.35 9.811-14.398-2.007-28.893-3.404-43.248-5.67-2.614-0.413-6.336-3.388-6.896-5.797-13.084-56.09-44.796-102.41-77.181-148.41-5.706-8.108-11.131-16.407-17.825-26.297z"/>
   <path d="m1794.1 346.73c24.244 19.3 48.323 35.179 64.906 59.449 6.828 9.99 14.012 19.761 21.469 29.293 7.017 8.97 6.729 16.938 0.033 26.277-20.499 28.595-47.744 49.91-75.043 71.228-9.544 7.457-19.452 14.45-28.931 21.991-4.752 3.778-8.308 4.063-11.962-1.26-7.252-10.557-14.947-20.816-21.928-31.545-1.549-2.383-2.331-7.084-1.025-9.235 28.704-47.294 37.049-101 48.914-153.6 0.812-3.6 2.002-7.112 3.567-12.598z"/>
   <path d="m1914.7 450.88c25.061 32.877 37.639 68.862 38.949 108.75 0.11 3.351-2.62 8.243-5.508 10.029-43.69 27.028-89.561 48.377-141.68 53.158-7.094 0.649-10.152-1.27-10.845-8.429-1.307-13.439-3.765-26.793-4.522-40.248-0.248-4.293 2.081-10.643 5.393-12.935 42.45-29.372 80.743-63.072 111.98-104.42 1.409-1.862 3.421-3.269 6.232-5.906z"/>
   <path d="m1973.2 580.14c4.931 22.407 5.314 43.325 1.307 64.203-3.065 15.978-6.721 31.874-10.996 47.566-0.909 3.331-5.437 7.722-8.647 8.035-17.141 1.675-34.512 3.923-51.585 2.777-33.217-2.224-65.563-9.944-98.33-20.251 4.183-14.078 7.911-27.614 12.45-40.87 0.694-2.028 5-3.263 7.86-4.03 18.73-5.027 37.559-9.725 56.296-14.726 29.015-7.744 56.262-19.476 81.189-36.372 2.842-1.926 5.874-3.572 10.456-6.332z"/>
   <path d="m1973.3 721.58c-5.482 12.876-9.327 25.466-15.888 36.438-9.026 15.102-20.591 28.662-30.126 43.49-6.373 9.911-14.836 12.794-24.816 8.945-20.598-7.942-41.572-15.493-60.893-25.968-19.332-10.483-37.294-23.726-54.981-36.931-11.138-8.315-10.702-11.493-2.032-21.985 6.573-7.958 12.146-19.499 20.571-22.362 7.853-2.667 19.006 3.633 28.493 6.648 38.957 12.383 79.03 12.329 119.23 11.163 4.146-0.121 8.293-0.274 12.44-0.282 1.697-0.002 3.393 0.34 8.004 0.844z"/>
   <path d="m1918.4 834.75c-8.683 15.852-20.118 28.164-33.475 38.713-9.768 7.719-19.734 15.233-30.056 22.182-14.285 9.62-21.346 9.745-34.545-1.584-13.352-11.463-27.015-23.189-37.692-37.003-16.446-21.278-30.431-44.459-45.539-66.777-3.893-5.749-2.004-9.27 3.582-12.383 8.465-4.716 16.974-9.453 24.91-14.979 6.647-4.628 11.206-3.651 17.087 1.685 31.75 28.805 68.556 49.115 109.01 62.897 8.418 2.868 17.192 4.697 26.717 7.249z"/>
   <path d="m1825.3 922.92c-12.995 5.46-22.957 11.742-33.712 13.739-24.449 4.537-49.255 7.249-73.999 9.913-3.301 0.357-8.979-3.034-10.348-6.114-7.243-16.321-14.932-32.687-19.69-49.811-7.568-27.211-14.667-54.728-8.875-83.699 1.693-8.466 4.289-10.635 13.093-11.233 21.21-1.438 33.792 4.589 42.617 26.311 11.822 29.101 36.193 50.175 58.813 71.629 9.48 8.988 19.298 17.618 32.101 29.265z"/>
   <path d="m1690.6 961.38c-9.434-2.236-17.894-3.521-25.854-6.268-19.605-6.763-39.045-14.024-58.425-21.427-11.036-4.217-16.374-12.051-17.064-24.523-2.36-42.841 12.556-80.844 31.731-117.68 1.293-2.484 8.137-4.665 10.709-3.442 10.242 4.877 19.952 10.944 29.498 17.122 1.711 1.107 2.791 5.039 2.361 7.324-9.705 51.807 2.832 99.464 26.571 145.1 0.149 0.288 0.098 0.68 0.473 3.792z"/>
   <path d="m1589.9 751.27c7.704 16.815 15.494 31.641 5.724 52.277-15.896 33.569-24.104 69.884-25.072 107.43-0.096 3.793-0.575 7.587-1.124 11.346-0.184 1.258-1.136 2.404-2.598 5.328-5.994-4.27-12.627-7.234-16.766-12.255-15.792-19.179-31.036-38.825-45.952-58.695-7.109-9.466-5.626-18.976 1.561-28.545 21.167-28.2 45.521-53.005 74.773-72.844 1.709-1.16 3.558-2.146 5.414-3.059 0.874-0.425 1.927-0.491 4.04-0.985z"/>
   <path d="m1577.2 704.17c-1.039 19.718-3.807 34.905-20.828 47.152-29.363 21.134-51.691 49.873-72.906 79.1-2.405 3.313-3.933 7.272-7.362 10.29-11.706-22.634-19.8-44.841-17.753-69.241 2.962-35.318-4.09-30.197 32.191-43.727 22.632-8.444 46.139-14.572 69.367-21.364 5.153-1.507 10.777-1.424 17.291-2.21z"/>
   <path d="m1544.7 545.26c25.806-6.633 48.204-24.284 76.851-21.887 7.575 0.636 13.354 3.485 16.811 10.271 4.075 7.998 9.153 15.767 11.575 24.269 5.188 18.185 8.94 36.776 13.393 55.679-3.485 0.417-5.334 0.191-6.74 0.876-18.618 9.058-29.171-1.921-42.071-13.69-16.733-15.263-36.78-26.888-55.337-40.164-5.314-3.801-10.41-7.902-15.612-11.861 0.375-1.167 0.752-2.328 1.13-3.493z"/>
   <path d="m1620.6 627.16c-6.017 4.742-11.27 9.994-17.517 13.429-4.521 2.48-10.999 4.677-15.523 3.343-32.018-9.463-64.181-17.422-97.895-16.885-1.594 0.024-3.202-1.049-5.874-1.988 1.627-3.771 2.301-7.88 4.671-10.402 12.708-13.554 25.262-27.357 39.045-39.761 7.861-7.074 18.922-9.057 28.025-2.139 21.152 16.073 41.58 33.093 62.227 49.823 1.225 0.992 1.778 2.814 2.841 4.58z"/>
   <path d="m1447.9 723.86c2.117-6.1 3.575-12.53 6.478-18.228 9.117-17.895 18.543-35.648 28.464-53.109 1.67-2.941 6.244-5.59 9.72-5.938 29.881-3.002 58.612 2.198 86.443 13.19 6.115 2.414 7.528 5.367 4.754 11.813-4.933 11.464-12.414 16.034-25.129 19.218-32.441 8.125-64.016 19.749-95.909 30.047-4.205 1.359-8.28 3.137-12.415 4.721-0.804-0.573-1.604-1.145-2.406-1.714z"/>
   <path d="m1636.9 692.35c12.742-0.802 20.89 2.479 28.488 11.676 19.324 23.381 45.233 35.76 75.279 39.493 3.352 0.417 6.706 0.81 12.446 1.497-4.211 3.546-6.47 6.032-9.232 7.682-24.627 14.697-51.202 22.072-80.012 21.251-10.413-0.298-17.302-5.074-19.366-15.157-3.524-17.222-6.637-34.539-9.275-51.912-0.686-4.516 1.014-9.392 1.672-14.53z"/>
   <path d="m1652.9 517.94c8.508 1.996 16.27 2.406 22.634 5.592 14.184 7.1 27.781 15.407 41.415 23.563 9.597 5.745 13.346 14.443 8.362 24.764-7.928 16.419-16.486 32.558-25.479 48.417-2.001 3.528-9.354 8.219-10.089 7.584-4.868-4.217-10.745-9.176-12.264-14.951-3.313-12.606-3.075-26.15-6.395-38.759-4.729-17.96-11.347-35.42-18.184-56.21z"/>
   <path d="m1789.7 651.88c-1.527 9.3-1.063 17.42-4.251 23.677-7.522 14.751-16.179 29.04-25.706 42.578-2.972 4.228-10.402 8.006-15.456 7.617-23.076-1.771-44.655-9.205-63.975-22.167-9.623-6.455-9.883-10.345-0.251-17.038 5.919-4.11 13.778-8.551 20.369-8.014 29.79 2.436 56.113-5.837 80.565-21.984 1.967-1.295 4.161-2.248 8.705-4.669z"/>
   <path d="m1750.2 563.52c16.734 19.596 26.728 40.285 26.981 65.079 0.08 7.687-2.554 13.268-10.331 16.029-18.216 6.468-36.23 13.526-54.577 19.583-3.952 1.306-12.699 0.008-12.884-1.115-1.145-7.123-3.622-17.762 0.058-21.312 21.776-21.008 36.238-46.222 47.585-73.701 0.492-1.196 1.496-2.186 3.168-4.563z"/>
   <path d="m1614.6 650.26c3.046 8.301 6.9 16.711 9.124 25.535 1.815 7.196 2.273 14.889 2.293 22.363 0.058 21.319-0.414 42.642-0.665 62.83-43.502-25.702-37.662-92.455-10.752-110.73z"/>
  </g>
 </g>
    </symbol>

     <symbol id="icon-menu_320">
      	<title>icon-menu_320</title>
      	<path fill-rule="evenodd" clip-rule="evenodd" d="M0,0v2.999h34V0H0z M0,12.001h34V8.999H0V12.001z M0,21h34v-3H0V21z"/>
    </symbol>

    <symbol id="icon-menu_768">
      	<title>icon-menu_768</title>
      	<rect fill-rule="evenodd" clip-rule="evenodd" width="44" height="3"/>
		<rect y="9" fill-rule="evenodd" clip-rule="evenodd" width="44" height="3.001"/>
		<rect y="18" fill-rule="evenodd" clip-rule="evenodd" width="44" height="3"/>
    </symbol>

	<symbol id="arrow-down">
      	<title>arrow-down</title>
      	<polygon fill-rule="evenodd" clip-rule="evenodd" points="19,5.25 13.749,0 13,0.75 17.249,5.001 0,5.001 0,6.001 17.248,6.001 13,10.25 13.749,11 19,5.75 "/>
    </symbol>

    <symbol id="arrow-right-slide">
      	<title>arrow-right-slide</title>
      	<polygon fill-rule="evenodd" clip-rule="evenodd" points="12,10.4 1.4,0 0,1.4 9.1,10.5 0,19.6 1.4,21 12,10.6 "/>
    </symbol>

    <symbol id="filter-bar">
      	<title>filter-bar</title>
      	<path fill-rule="evenodd" clip-rule="evenodd" d="M0,0v1h14V0H0z M0,5h14V4H0V5z M0,9h14V8H0V9z"/>
    </symbol>

    <symbol id="plus-circle">
      	<title>plus-circle</title>
      	<path fill-rule="evenodd" clip-rule="evenodd" d="M7.3,42.7c-9.8-9.8-9.8-25.6,0-35.4c9.8-9.8,25.6-9.8,35.4,0
			c9.8,9.8,9.8,25.6,0,35.4C32.9,52.4,17.1,52.4,7.3,42.7z M41.3,8.7c-9-9-23.5-9-32.5,0c-9,9-9,23.5,0,32.5c9,9,23.5,9,32.5,0
			C50.2,32.3,50.2,17.7,41.3,8.7z"/>
		<path fill-rule="evenodd" clip-rule="evenodd" d="M32.5,16l1.5,1.5L17.5,34L16,32.5L32.5,16z"/>
		<path fill-rule="evenodd" clip-rule="evenodd" d="M34,32.5L32.5,34L16,17.5l1.5-1.5L34,32.5z"/>
    </symbol>

    <symbol id="tweet-icon">
      	<title>tweet-icon</title>
      	<path d="M33.213,7.472c0.016,0.324,0.022,0.649,0.022,0.979C33.235,18.458,25.6,30,11.637,30C7.348,30,3.36,28.748,0,26.598
		c0.596,0.072,1.199,0.104,1.811,0.104c3.559,0,6.829-1.208,9.426-3.241c-3.32-0.059-6.125-2.249-7.089-5.259
		c0.463,0.09,0.937,0.135,1.427,0.135c0.693,0,1.364-0.09,1.999-0.267c-3.469-0.693-6.088-3.758-6.088-7.426c0-0.031,0-0.062,0-0.095
		c1.025,0.568,2.195,0.911,3.439,0.947C2.888,10.14,1.549,7.818,1.549,5.191c0-1.389,0.375-2.686,1.028-3.807
		c3.742,4.583,9.338,7.597,15.646,7.913c-0.129-0.555-0.196-1.131-0.196-1.726C18.026,3.388,21.425,0,25.618,0
		c2.182,0,4.155,0.919,5.54,2.389c1.728-0.338,3.354-0.969,4.822-1.835c-0.569,1.768-1.77,3.253-3.338,4.186
		C34.177,4.56,35.641,4.154,37,3.551C35.984,5.07,34.697,6.403,33.213,7.472z"/>
    </symbol>

    <symbol id="face-icon">
      	<title>face-icon</title>
      	<path d="M25.5,0C11.417,0,0,11.418,0,25.501C0,39.585,11.417,51,25.5,51C39.583,51,51,39.585,51,25.501C51,11.418,39.583,0,25.5,0z
		 M29.963,26.01L27,26c0,5.708,0,13,0,13h-5c0,0,0-7.22,0-13h-2v-4h2v-3c0-2.086,0.647-6,5-6h4v5c0,0-2.538,0-3,0
		c-0.464,0-1,0.004-1,1v3h4L29.963,26.01z"/>
    </symbol>

    <symbol id="twitter-icon">
      	<title>twitter-icon</title>
      	<path d="M25.5,0C11.418,0,0,11.418,0,25.501C0,39.585,11.418,51,25.5,51C39.583,51,51,39.585,51,25.501C51,11.418,39.583,0,25.5,0z
		 M36.339,21.239c0.011,0.227,0.016,0.453,0.016,0.684c0,6.997-5.365,15.064-15.177,15.064c-3.013,0-5.816-0.876-8.177-2.378
		c0.419,0.047,0.843,0.072,1.272,0.072c2.501,0,4.799-0.844,6.624-2.266c-2.333-0.043-4.304-1.575-4.981-3.676
		c0.325,0.06,0.658,0.095,1.002,0.095c0.487,0,0.958-0.066,1.404-0.186c-2.437-0.489-4.278-2.628-4.278-5.192
		c0-0.021,0-0.045,0-0.066c0.721,0.397,1.543,0.634,2.417,0.662c-1.431-0.948-2.372-2.571-2.372-4.407
		c0-0.971,0.263-1.881,0.722-2.662c2.63,3.203,6.562,5.312,10.994,5.531c-0.09-0.387-0.138-0.79-0.138-1.206
		c0-2.924,2.388-5.293,5.335-5.293c1.533,0,2.92,0.643,3.893,1.67c1.214-0.236,2.356-0.678,3.388-1.285
		c-0.4,1.238-1.244,2.274-2.345,2.93c1.079-0.126,2.107-0.412,3.062-0.831C38.286,19.561,37.381,20.492,36.339,21.239z"/>
    </symbol>

    <symbol id="google-icon">
      	<title>google-icon</title>
      	<path d="M20.321,15.475c-2.024-0.061-3.385,1.977-3.033,4.634c0.349,2.661,2.273,4.52,4.301,4.582
			c2.024,0.059,3.188-1.653,2.84-4.314C24.08,17.718,22.347,15.535,20.321,15.475z"/>
		<path d="M21.173,30.135c-3.02-0.034-5.576,1.905-5.576,4.155c0,2.294,2.18,4.206,5.198,4.206c4.244,0,5.723-1.794,5.723-4.091
			c0-0.277-0.034-0.548-0.097-0.809c-0.333-1.299-1.652-2.012-3.293-3.15C22.533,30.253,21.876,30.141,21.173,30.135z"/>
		<path d="M25.5,0C11.417,0,0,11.418,0,25.501C0,39.585,11.417,51,25.5,51S51,39.585,51,25.501C51,11.418,39.583,0,25.5,0z
			 M27.448,20.264c0,1.663-0.92,3.001-2.22,4.016c-1.27,0.993-1.51,1.407-1.51,2.251c0,0.719,1.517,1.79,2.214,2.312
			c2.426,1.821,2.918,2.967,2.918,5.242c0,2.842-3.062,5.665-8.039,5.665c-4.367,0-8.053-1.774-8.053-4.616
			c0-2.883,3.057-5.89,7.424-5.89c0.477,0,0.912-0.013,1.363-0.013c-0.598-0.577-1.08-1.08-1.08-1.957
			c0-0.523,0.165-1.021,0.398-1.467c-0.236,0.016-0.479,0.031-0.728,0.031c-3.588,0-5.677-2.521-5.677-5.681
			c0-3.094,3.18-5.908,6.993-5.908c1.966,0,7.516,0,7.516,0l-1.68,1.765h-1.973C26.709,16.812,27.448,18.452,27.448,20.264z
			 M38,20.001h-3V23h-2v-2.999h-3V18h3v-2.999h2V18h3V20.001z"/>
    </symbol>

    <symbol id="linkedin-icon">
      	<title>linkedin-icon</title>
      	<path d="M25.5,0C11.416,0,0,11.418,0,25.501C0,39.585,11.416,51,25.5,51C39.583,51,51,39.585,51,25.501C51,11.418,39.583,0,25.5,0z
		 M18,36.001h-5v-16h5V36.001z M15.482,16.998h-0.029C13.964,16.998,13,15.887,13,14.5c0-1.418,0.994-2.499,2.51-2.499
		c1.52,0,2.456,1.081,2.483,2.499C17.994,15.887,17.03,16.998,15.482,16.998z M38,36.001h-5V27c0-2.21-1.007-3.33-2.986-3.33
		c-1.508,0-2.409,1.021-2.805,2.002c-0.145,0.352-0.181,0.837-0.181,1.333L27,36.001h-5c0,0,0.069-14.461,0-16h5l0.028,2.072
		C27.757,20.95,29.099,19,32,19c3.596,0,6,2.948,6,8V36.001z"/>
    </symbol>

    <symbol id="dribbble-icon">
      	<title>dribbble-icon</title>
      	<path d="M25.5,0C11.416,0,0,11.418,0,25.501C0,39.585,11.416,51,25.5,51C39.582,51,51,39.585,51,25.501C51,11.418,39.582,0,25.5,0z
			 M37.988,27.568c-0.165,0.818-0.417,1.625-0.744,2.396c-0.317,0.753-0.713,1.484-1.174,2.167c-0.457,0.675-0.98,1.307-1.556,1.886
			c-0.576,0.576-1.211,1.099-1.887,1.554c-0.682,0.46-1.41,0.855-2.167,1.177c-0.769,0.326-1.574,0.575-2.396,0.743
			c-0.837,0.172-1.702,0.259-2.564,0.259c-0.866,0-1.728-0.087-2.568-0.259c-0.818-0.168-1.625-0.417-2.396-0.743
			c-0.754-0.321-1.485-0.717-2.167-1.177c-0.672-0.455-1.308-0.978-1.887-1.554c-0.575-0.579-1.099-1.211-1.553-1.886
			c-0.461-0.683-0.856-1.414-1.177-2.167c-0.327-0.771-0.576-1.578-0.744-2.396C12.837,26.73,12.75,25.865,12.75,25
			c0-0.862,0.087-1.728,0.258-2.564c0.168-0.819,0.417-1.629,0.744-2.397c0.32-0.756,0.716-1.484,1.177-2.166
			c0.454-0.675,0.978-1.311,1.553-1.887c0.579-0.576,1.215-1.099,1.887-1.557c0.682-0.46,1.413-0.855,2.167-1.177
			c0.771-0.322,1.578-0.575,2.396-0.739c0.841-0.176,1.702-0.263,2.568-0.263c0.862,0,1.728,0.087,2.564,0.263
			c0.822,0.164,1.628,0.417,2.396,0.739c0.757,0.321,1.485,0.717,2.167,1.177c0.676,0.458,1.311,0.98,1.887,1.557
			c0.575,0.576,1.099,1.212,1.556,1.887c0.461,0.682,0.856,1.41,1.174,2.166c0.327,0.769,0.579,1.578,0.744,2.397
			c0.174,0.837,0.262,1.702,0.262,2.564C38.25,25.865,38.162,26.73,37.988,27.568z"/>
		<path d="M32.69,16.829c-1.918-1.69-4.436-2.718-7.19-2.718c-0.885,0-1.743,0.11-2.565,0.309c0.162,0.215,2.207,2.932,4.068,6.353
			C31.112,19.233,32.662,16.872,32.69,16.829z"/>
		<path d="M24.896,21.427c-1.883-3.35-3.897-6.079-4.043-6.272c-3.035,1.432-5.302,4.23-6.008,7.602
			C15.131,22.762,19.669,22.814,24.896,21.427z"/>
		<path d="M26.253,25.084c0.144-0.044,0.283-0.087,0.43-0.128c-0.274-0.618-0.573-1.241-0.884-1.852
			c-5.606,1.678-10.985,1.557-11.179,1.553c-0.003,0.112-0.009,0.228-0.009,0.343c0,2.795,1.055,5.345,2.786,7.271
			C17.4,32.266,20.381,26.982,26.253,25.084z"/>
		<path d="M27.841,22.395c0.255,0.517,0.498,1.047,0.725,1.578c0.081,0.19,0.159,0.377,0.233,0.563c3.742-0.47,7.428,0.32,7.586,0.354
			c-0.027-2.583-0.949-4.952-2.478-6.808C33.889,18.114,32.143,20.639,27.841,22.395z"/>
		<path d="M29.465,26.255c1.426,3.925,2.008,7.118,2.117,7.775c2.446-1.649,4.184-4.267,4.666-7.3
			C36.024,26.656,32.979,25.691,29.465,26.255z"/>
		<path d="M27.352,26.783c-6.331,2.205-8.457,6.615-8.538,6.786c1.848,1.441,4.16,2.319,6.687,2.319c1.506,0,2.944-0.304,4.249-0.862
			c-0.159-0.951-0.794-4.286-2.326-8.268C27.398,26.768,27.377,26.774,27.352,26.783z"/>
    </symbol>

    <symbol id="vimeo-icon">
      	<title>vimeo-icon</title>
      	<path d="M25.5,0C11.418,0,0,11.418,0,25.501C0,39.586,11.418,51,25.5,51S51,39.586,51,25.501C51,11.418,39.582,0,25.5,0z
		 M38.122,19.717c-1.426,8.024-9.385,14.822-11.78,16.377c-2.396,1.554-4.58-0.623-5.371-2.267
		c-0.909-1.878-3.626-12.041-4.337-12.881c-0.712-0.841-2.849,0.84-2.849,0.84L12.75,20.43c0,0,4.336-5.18,7.636-5.827
		c3.5-0.688,3.496,5.372,4.338,8.737c0.813,3.254,1.361,5.114,2.071,5.114c0.713,0,2.071-1.814,3.56-4.595
		c1.489-2.786-0.063-5.244-2.978-3.495C28.541,13.373,39.547,11.692,38.122,19.717z"/>
    </symbol>

    <symbol id="name-icon">
      	<title>name-icon</title>
      	<path d="M17.848,16.01c-1.097-0.457-3.702-1.354-5.305-1.827c-0.137-0.043-0.158-0.05-0.158-0.618c0-0.469,0.193-0.942,0.382-1.342
		c0.204-0.435,0.446-1.165,0.533-1.82c0.243-0.283,0.574-0.839,0.787-1.898c0.187-0.935,0.1-1.274-0.024-1.593
		c-0.013-0.033-0.026-0.066-0.036-0.1c-0.047-0.219,0.018-1.357,0.178-2.24c0.11-0.604-0.028-1.893-0.863-2.958
		C12.813,0.941,11.805,0.114,9.962,0L8.951,0.001C7.14,0.114,6.13,0.941,5.603,1.615C4.768,2.681,4.629,3.969,4.739,4.573
		C4.9,5.456,4.964,6.594,4.918,6.809C4.908,6.846,4.895,6.88,4.881,6.913C4.758,7.232,4.67,7.571,4.857,8.506
		c0.212,1.059,0.543,1.615,0.787,1.898c0.086,0.655,0.328,1.385,0.533,1.82c0.149,0.318,0.22,0.751,0.22,1.363
		c0,0.567-0.021,0.574-0.149,0.615c-1.657,0.488-4.295,1.441-5.278,1.87C0.191,16.406,0,17.005,0,17.546c0,0.54,0,2.143,0,2.497
		C0,20.396,0.211,21,0.97,21c0.584,0,5.26,0,7.384,0C8.99,21,9.4,21,9.4,21h0.183c0,0,0.417,0,1.063,0c2.132,0,6.801,0,7.384,0
		c0.759,0,0.97-0.604,0.97-0.957c0-0.354,0-1.957,0-2.497C19,17.005,18.627,16.345,17.848,16.01z M17.994,20.001h-7.348H9.583H9.4
		H8.354H1v-2.455c0-0.304,0.089-0.439,0.371-0.56c0.947-0.414,3.566-1.358,5.18-1.833c0.847-0.269,0.847-1.02,0.847-1.567
		c0-0.763-0.1-1.331-0.315-1.789c-0.164-0.347-0.373-0.973-0.445-1.524L6.598,9.977L6.4,9.75C6.293,9.625,6.023,9.237,5.838,8.309
		C5.693,7.586,5.758,7.42,5.809,7.285c0.029-0.072,0.057-0.144,0.078-0.225l0.005-0.022l0.005-0.021
		c0.1-0.472-0.035-1.869-0.174-2.624C5.66,4.047,5.74,3.061,6.391,2.229c0.398-0.508,1.171-1.132,2.594-1.23L9.93,0.998
		c1.162,0.08,2.045,0.493,2.624,1.231c0.65,0.832,0.729,1.818,0.667,2.166c-0.141,0.775-0.274,2.148-0.172,2.626l0.008,0.038
		l0.011,0.036c0.015,0.05,0.033,0.103,0.054,0.153l0.009,0.025l0.001,0.001c0.057,0.146,0.121,0.31-0.024,1.034
		c-0.187,0.927-0.456,1.317-0.563,1.442l-0.195,0.226l-0.039,0.295c-0.073,0.55-0.283,1.178-0.447,1.526
		c-0.235,0.5-0.477,1.102-0.477,1.767c0,0.549,0,1.301,0.875,1.576c1.564,0.461,4.142,1.348,5.193,1.787
		C17.852,17.099,18,17.398,18,17.546L17.994,20.001z"/>
    </symbol>

    <symbol id="mail-icon">
      	<title>mail-icon</title>
      	<path d="M23.982,0H1.016H0.816H0.216H0v15.999h25V0h-0.865H23.982z M22.982,1l-9.658,9.658c-0.439,0.44-1.209,0.44-1.648,0L2.016,1
		H22.982z M1,1.397l6.493,6.492L1,14.382V1.397z M1.797,15l6.404-6.402l2.768,2.768C11.377,11.774,11.922,12,12.5,12
		s1.123-0.226,1.531-0.634l2.768-2.768L23.201,15H1.797z M24,14.385L17.506,7.89L24,1.396V14.385z"/>
    </symbol>

    <symbol id="text-icon">
      	<title>text-icon</title>
      	<path fill-rule="evenodd" clip-rule="evenodd" d="M0,3v1h20V3H0z M15,0H0v1h15V0z M0,7h20V6H0V7z M0,10h20V9H0V10z M0,13h20v-1H0V13
		z"/>
    </symbol>

    <symbol id="back-top">
      	<title>back-top</title>
      	<polygon fill-rule="evenodd" clip-rule="evenodd" points="46,15.46 30.54,0 29,1.541 42.46,15 0,15 0,17 42.46,17 29,30.459 
					30.54,32 46,16.54 "/>
    </symbol>
</svg>