<svg xmlns:rdf="http://www.w3.org/1999/02/22-rdf-syntax-ns#" xmlns="http://www.w3.org/2000/svg" version="1.1" xmlns:cc="http://creativecommons.org/ns#" xmlns:dc="http://purl.org/dc/elements/1.1/" viewBox="0 0 835.88742 657.0766">
 <g transform="translate(226.52 -120.97)">
  <g fill-rule="evenodd" clip-rule="evenodd" transform="translate(-1367.9 -183.33)">
   <path d="m1466.4 633.89c-15.119 25.438-28.818 48.971-43.229 72.064-1.574 2.522-7.45 3.939-10.973 3.42-28.786-4.245-57.4-9.775-86.243-13.563-48.915-6.423-97.495-5.064-145.13 9.527-3.218 0.985-6.649 1.276-13.252 2.493 3.354-14.399 4.323-27.797 9.545-39.26 15.623-34.3 31.836-68.431 49.911-101.48 12.679-23.188 19.678-25.988 44.099-17.287 45.966 16.374 91.271 34.646 136.57 52.818 16.024 6.428 31.372 14.612 46.767 22.506 5.069 2.601 9.317 6.797 11.933 8.761z"/>
   <path d="m1411.3 727.15c-4.378 31.215-8.148 59.969-12.798 88.585-0.509 3.124-5.698 6.938-9.372 7.876-30.025 7.679-60.409 14.025-90.299 22.179-53.506 14.595-87.668 26.683-138.64 69.102-2.755 2.295-6.004 3.994-11.99 7.905-2.63-15.524-7.197-29.086-6.784-42.494 1.229-40.125 3.104-80.323 7.255-120.23 2.91-27.997 8.632-33.628 36.202-35.135 51.893-2.837 103.92-3.537 155.9-4.336 18.388-0.283 36.833 1.439 55.206 2.855 6.047 0.468 11.947 2.84 15.326 3.691z"/>
   <path d="m1232 522.1c4.837-8.21 8.46-15.255 12.9-21.741 26.25-38.355 64.063-62.67 103.93-84.189 3.441-1.861 10.086-0.242 14.139 1.872 36.585 19.102 68.14 45.029 97.205 73.987 17.167 17.104 33.368 35.186 49.884 52.938 3.021 3.249 5.479 7.021 8.149 10.485-0.94 1.42-1.331 2.472-2.08 3.074-18.073 14.425-36.362 28.579-54.167 43.324-5.003 4.146-8.86 5.163-14.682 1.932-64.055-35.555-132.62-59.382-203.27-77.763-3.294-0.858-6.488-2.104-12.006-3.919z"/>
   <path d="m1343.9 382.15c15.8-7.047 28.599-13.98 42.196-18.556 26.249-8.833 52.935-16.362 79.459-24.383 7.26-2.193 12.806-0.616 18.198 5.585 37.214 42.777 66.51 90.291 86.945 143.19 9.218 23.863 8.685 24.203-15.196 30.113-10.348 2.561-20.504 6.237-30.359 10.33-5.349 2.218-8.656 2.141-12.381-2.606-43.344-55.282-97.497-98.06-156.7-134.96-3.193-1.989-6.137-4.375-12.165-8.714z"/>
   <path d="m1646.8 304.42c6.031 0.158 10.962-0.66 15.331 0.548 34.578 9.55 67.466 23.075 97.709 42.637 7.53 4.871 10.625 11.723 9.461 20.404-7.287 54.447-20.37 106.86-54.944 152.87-8.373-5.392-16.547-13.263-26.247-16.371-22.17-7.106-26.227-21.962-26.362-43.1-0.238-37.364-3.06-74.758-5.999-112.04-1.133-14.336-5.549-28.409-8.949-44.94z"/>
   <path d="m1490 314.49c31.631-7.041 60.583-5.146 89.41-0.822 14.003 2.101 27.723 6.081 41.608 9.026 7.372 1.563 10.609 6.008 12.503 13.249 10.437 39.946 13.1 80.594 12.177 121.64-0.244 11.083-0.474 22.184-0.198 33.267 0.187 7.563-2.427 10.911-10.35 9.811-14.398-2.007-28.893-3.404-43.248-5.67-2.614-0.413-6.336-3.388-6.896-5.797-13.084-56.09-44.796-102.41-77.181-148.41-5.706-8.108-11.131-16.407-17.825-26.297z"/>
   <path d="m1794.1 346.73c24.244 19.3 48.323 35.179 64.906 59.449 6.828 9.99 14.012 19.761 21.469 29.293 7.017 8.97 6.729 16.938 0.033 26.277-20.499 28.595-47.744 49.91-75.043 71.228-9.544 7.457-19.452 14.45-28.931 21.991-4.752 3.778-8.308 4.063-11.962-1.26-7.252-10.557-14.947-20.816-21.928-31.545-1.549-2.383-2.331-7.084-1.025-9.235 28.704-47.294 37.049-101 48.914-153.6 0.812-3.6 2.002-7.112 3.567-12.598z"/>
   <path d="m1914.7 450.88c25.061 32.877 37.639 68.862 38.949 108.75 0.11 3.351-2.62 8.243-5.508 10.029-43.69 27.028-89.561 48.377-141.68 53.158-7.094 0.649-10.152-1.27-10.845-8.429-1.307-13.439-3.765-26.793-4.522-40.248-0.248-4.293 2.081-10.643 5.393-12.935 42.45-29.372 80.743-63.072 111.98-104.42 1.409-1.862 3.421-3.269 6.232-5.906z"/>
   <path d="m1973.2 580.14c4.931 22.407 5.314 43.325 1.307 64.203-3.065 15.978-6.721 31.874-10.996 47.566-0.909 3.331-5.437 7.722-8.647 8.035-17.141 1.675-34.512 3.923-51.585 2.777-33.217-2.224-65.563-9.944-98.33-20.251 4.183-14.078 7.911-27.614 12.45-40.87 0.694-2.028 5-3.263 7.86-4.03 18.73-5.027 37.559-9.725 56.296-14.726 29.015-7.744 56.262-19.476 81.189-36.372 2.842-1.926 5.874-3.572 10.456-6.332z"/>
   <path d="m1973.3 721.58c-5.482 12.876-9.327 25.466-15.888 36.438-9.026 15.102-20.591 28.662-30.126 43.49-6.373 9.911-14.836 12.794-24.816 8.945-20.598-7.942-41.572-15.493-60.893-25.968-19.332-10.483-37.294-23.726-54.981-36.931-11.138-8.315-10.702-11.493-2.032-21.985 6.573-7.958 12.146-19.499 20.571-22.362 7.853-2.667 19.006 3.633 28.493 6.648 38.957 12.383 79.03 12.329 119.23 11.163 4.146-0.121 8.293-0.274 12.44-0.282 1.697-0.002 3.393 0.34 8.004 0.844z"/>
   <path d="m1918.4 834.75c-8.683 15.852-20.118 28.164-33.475 38.713-9.768 7.719-19.734 15.233-30.056 22.182-14.285 9.62-21.346 9.745-34.545-1.584-13.352-11.463-27.015-23.189-37.692-37.003-16.446-21.278-30.431-44.459-45.539-66.777-3.893-5.749-2.004-9.27 3.582-12.383 8.465-4.716 16.974-9.453 24.91-14.979 6.647-4.628 11.206-3.651 17.087 1.685 31.75 28.805 68.556 49.115 109.01 62.897 8.418 2.868 17.192 4.697 26.717 7.249z"/>
   <path d="m1825.3 922.92c-12.995 5.46-22.957 11.742-33.712 13.739-24.449 4.537-49.255 7.249-73.999 9.913-3.301 0.357-8.979-3.034-10.348-6.114-7.243-16.321-14.932-32.687-19.69-49.811-7.568-27.211-14.667-54.728-8.875-83.699 1.693-8.466 4.289-10.635 13.093-11.233 21.21-1.438 33.792 4.589 42.617 26.311 11.822 29.101 36.193 50.175 58.813 71.629 9.48 8.988 19.298 17.618 32.101 29.265z"/>
   <path d="m1690.6 961.38c-9.434-2.236-17.894-3.521-25.854-6.268-19.605-6.763-39.045-14.024-58.425-21.427-11.036-4.217-16.374-12.051-17.064-24.523-2.36-42.841 12.556-80.844 31.731-117.68 1.293-2.484 8.137-4.665 10.709-3.442 10.242 4.877 19.952 10.944 29.498 17.122 1.711 1.107 2.791 5.039 2.361 7.324-9.705 51.807 2.832 99.464 26.571 145.1 0.149 0.288 0.098 0.68 0.473 3.792z"/>
   <path d="m1589.9 751.27c7.704 16.815 15.494 31.641 5.724 52.277-15.896 33.569-24.104 69.884-25.072 107.43-0.096 3.793-0.575 7.587-1.124 11.346-0.184 1.258-1.136 2.404-2.598 5.328-5.994-4.27-12.627-7.234-16.766-12.255-15.792-19.179-31.036-38.825-45.952-58.695-7.109-9.466-5.626-18.976 1.561-28.545 21.167-28.2 45.521-53.005 74.773-72.844 1.709-1.16 3.558-2.146 5.414-3.059 0.874-0.425 1.927-0.491 4.04-0.985z"/>
   <path d="m1577.2 704.17c-1.039 19.718-3.807 34.905-20.828 47.152-29.363 21.134-51.691 49.873-72.906 79.1-2.405 3.313-3.933 7.272-7.362 10.29-11.706-22.634-19.8-44.841-17.753-69.241 2.962-35.318-4.09-30.197 32.191-43.727 22.632-8.444 46.139-14.572 69.367-21.364 5.153-1.507 10.777-1.424 17.291-2.21z"/>
   <path d="m1544.7 545.26c25.806-6.633 48.204-24.284 76.851-21.887 7.575 0.636 13.354 3.485 16.811 10.271 4.075 7.998 9.153 15.767 11.575 24.269 5.188 18.185 8.94 36.776 13.393 55.679-3.485 0.417-5.334 0.191-6.74 0.876-18.618 9.058-29.171-1.921-42.071-13.69-16.733-15.263-36.78-26.888-55.337-40.164-5.314-3.801-10.41-7.902-15.612-11.861 0.375-1.167 0.752-2.328 1.13-3.493z"/>
   <path d="m1620.6 627.16c-6.017 4.742-11.27 9.994-17.517 13.429-4.521 2.48-10.999 4.677-15.523 3.343-32.018-9.463-64.181-17.422-97.895-16.885-1.594 0.024-3.202-1.049-5.874-1.988 1.627-3.771 2.301-7.88 4.671-10.402 12.708-13.554 25.262-27.357 39.045-39.761 7.861-7.074 18.922-9.057 28.025-2.139 21.152 16.073 41.58 33.093 62.227 49.823 1.225 0.992 1.778 2.814 2.841 4.58z"/>
   <path d="m1447.9 723.86c2.117-6.1 3.575-12.53 6.478-18.228 9.117-17.895 18.543-35.648 28.464-53.109 1.67-2.941 6.244-5.59 9.72-5.938 29.881-3.002 58.612 2.198 86.443 13.19 6.115 2.414 7.528 5.367 4.754 11.813-4.933 11.464-12.414 16.034-25.129 19.218-32.441 8.125-64.016 19.749-95.909 30.047-4.205 1.359-8.28 3.137-12.415 4.721-0.804-0.573-1.604-1.145-2.406-1.714z"/>
   <path d="m1636.9 692.35c12.742-0.802 20.89 2.479 28.488 11.676 19.324 23.381 45.233 35.76 75.279 39.493 3.352 0.417 6.706 0.81 12.446 1.497-4.211 3.546-6.47 6.032-9.232 7.682-24.627 14.697-51.202 22.072-80.012 21.251-10.413-0.298-17.302-5.074-19.366-15.157-3.524-17.222-6.637-34.539-9.275-51.912-0.686-4.516 1.014-9.392 1.672-14.53z"/>
   <path d="m1652.9 517.94c8.508 1.996 16.27 2.406 22.634 5.592 14.184 7.1 27.781 15.407 41.415 23.563 9.597 5.745 13.346 14.443 8.362 24.764-7.928 16.419-16.486 32.558-25.479 48.417-2.001 3.528-9.354 8.219-10.089 7.584-4.868-4.217-10.745-9.176-12.264-14.951-3.313-12.606-3.075-26.15-6.395-38.759-4.729-17.96-11.347-35.42-18.184-56.21z"/>
   <path d="m1789.7 651.88c-1.527 9.3-1.063 17.42-4.251 23.677-7.522 14.751-16.179 29.04-25.706 42.578-2.972 4.228-10.402 8.006-15.456 7.617-23.076-1.771-44.655-9.205-63.975-22.167-9.623-6.455-9.883-10.345-0.251-17.038 5.919-4.11 13.778-8.551 20.369-8.014 29.79 2.436 56.113-5.837 80.565-21.984 1.967-1.295 4.161-2.248 8.705-4.669z"/>
   <path d="m1750.2 563.52c16.734 19.596 26.728 40.285 26.981 65.079 0.08 7.687-2.554 13.268-10.331 16.029-18.216 6.468-36.23 13.526-54.577 19.583-3.952 1.306-12.699 0.008-12.884-1.115-1.145-7.123-3.622-17.762 0.058-21.312 21.776-21.008 36.238-46.222 47.585-73.701 0.492-1.196 1.496-2.186 3.168-4.563z"/>
   <path d="m1614.6 650.26c3.046 8.301 6.9 16.711 9.124 25.535 1.815 7.196 2.273 14.889 2.293 22.363 0.058 21.319-0.414 42.642-0.665 62.83-43.502-25.702-37.662-92.455-10.752-110.73z"/>
  </g>
 </g>
</svg>
